<svg width="100" height="100" viewBox="0 0 100 100" fill="none" xmlns="http://www.w3.org/2000/svg">
<g clip-path="url(#clip0_6_13)">
<path d="M84.6573 18.3231C78.1737 15.3455 71.3312 13.2215 64.3011 12.0043C64.2374 11.9936 64.1719 12.0029 64.1137 12.0309C64.0555 12.0588 64.0074 12.1042 63.9761 12.1606C63.0948 13.7231 62.1198 15.7668 61.4386 17.3668C53.861 16.2178 46.1536 16.2178 38.5761 17.3668C37.8193 15.583 36.9595 13.8446 36.0011 12.1606C35.9697 12.1042 35.9216 12.0588 35.8634 12.0309C35.8052 12.0029 35.7397 11.9936 35.6761 12.0043C28.6448 13.2168 21.8011 15.3418 15.3198 18.3231C15.2641 18.3438 15.2175 18.3837 15.1886 18.4356C2.22606 37.8043 -1.33019 56.6981 0.413556 75.3543C0.426056 75.446 0.469806 75.5231 0.544806 75.5856C8.09461 81.1745 16.5371 85.4433 25.5136 88.2106C25.5769 88.2306 25.6451 88.2299 25.708 88.2085C25.7709 88.1871 25.8254 88.1463 25.8636 88.0918C27.7927 85.4668 29.4969 82.6981 30.9761 79.7856C31.0068 79.7256 31.0173 79.6573 31.0061 79.5908C30.9948 79.5244 30.9623 79.4633 30.9136 79.4168L30.8011 79.3481C28.1095 78.3103 25.5019 77.0671 23.0011 75.6293C22.9312 75.5898 22.8793 75.5249 22.8561 75.4481C22.8328 75.3713 22.8399 75.2885 22.8761 75.2168L22.9698 75.0981C23.499 74.7023 24.0156 74.296 24.5198 73.8793C24.564 73.8438 24.617 73.821 24.6731 73.8133C24.7293 73.8056 24.7865 73.8133 24.8386 73.8356C41.2073 81.3106 58.9261 81.3106 75.0948 73.8356C75.1485 73.8108 75.2081 73.8017 75.2668 73.8095C75.3254 73.8172 75.3806 73.8414 75.4261 73.8793C75.9302 74.296 76.4469 74.7023 76.9761 75.0981C77.02 75.1282 77.0556 75.169 77.0793 75.2167C77.1031 75.2645 77.1143 75.3174 77.1117 75.3707C77.1092 75.4239 77.0932 75.4756 77.065 75.5209C77.0369 75.5662 76.9977 75.6035 76.9511 75.6293C74.461 77.0899 71.8492 78.332 69.1448 79.3418C69.1017 79.3574 69.0626 79.3823 69.0302 79.4147C68.9978 79.4471 68.9729 79.4862 68.9573 79.5293C68.9421 79.5709 68.9359 79.6153 68.9391 79.6595C68.9424 79.7037 68.9549 79.7466 68.9761 79.7856C70.4761 82.6918 72.1948 85.4668 74.0823 88.0918C74.1204 88.1463 74.1749 88.1871 74.2379 88.2085C74.3008 88.2299 74.3689 88.2306 74.4323 88.2106C83.4265 85.4585 91.8838 81.1886 99.4386 75.5856C99.4761 75.5591 99.5073 75.5246 99.53 75.4846C99.5527 75.4446 99.5663 75.4002 99.5698 75.3543C101.657 53.7856 96.0761 35.0481 84.7823 18.4418C84.7725 18.4135 84.756 18.3879 84.7343 18.3672C84.7125 18.3466 84.6861 18.3314 84.6573 18.3231ZM33.4198 63.9918C28.4886 63.9918 24.4323 59.4668 24.4323 53.9168C24.4323 48.3668 28.4136 43.8356 33.4198 43.8356C38.4636 43.8356 42.4823 48.3981 42.4073 53.9168C42.4073 59.4668 38.4261 63.9918 33.4198 63.9918ZM66.6448 63.9918C61.7198 63.9918 57.6573 59.4668 57.6573 53.9168C57.6573 48.3668 61.6386 43.8356 66.6448 43.8356C71.6886 43.8356 75.7136 48.3981 75.6323 53.9168C75.6323 59.4668 71.6886 63.9918 66.6448 63.9918Z" fill="#C9AB51"/>
</g>
<defs>
<clipPath id="clip0_6_13">
<rect width="100" height="100" fill="white"/>
</clipPath>
</defs>
</svg>
