<svg width="98" height="84" viewBox="0 0 98 84" fill="none" xmlns="http://www.w3.org/2000/svg">
<circle cx="47" cy="42" r="41" fill="#050505" stroke="#C9AB51" stroke-width="2"/>
<path d="M18.6516 51V33.48H22.5876V51H18.6516ZM40.0124 51L33.9644 42.816H31.5404L38.8844 33.48H43.3964L36.7964 41.856L36.7484 40.152L44.7644 51H40.0124ZM28.4924 51V33.48H32.4284V51H28.4924ZM55.6874 51.456C54.1034 51.456 52.7194 51.184 51.5354 50.64C50.3674 50.08 49.3994 49.352 48.6314 48.456C47.8634 47.544 47.2874 46.56 46.9034 45.504C46.5354 44.448 46.3514 43.432 46.3514 42.456V41.928C46.3514 40.84 46.5434 39.768 46.9274 38.712C47.3274 37.64 47.9194 36.672 48.7034 35.808C49.4874 34.944 50.4634 34.256 51.6314 33.744C52.7994 33.216 54.1514 32.952 55.6874 32.952C57.2234 32.952 58.5754 33.216 59.7434 33.744C60.9114 34.256 61.8874 34.944 62.6714 35.808C63.4554 36.672 64.0474 37.64 64.4474 38.712C64.8474 39.768 65.0474 40.84 65.0474 41.928V42.456C65.0474 43.432 64.8554 44.448 64.4714 45.504C64.0874 46.56 63.5114 47.544 62.7434 48.456C61.9754 49.352 60.9994 50.08 59.8154 50.64C58.6474 51.184 57.2714 51.456 55.6874 51.456ZM55.6874 47.784C56.5194 47.784 57.2634 47.64 57.9194 47.352C58.5914 47.064 59.1594 46.664 59.6234 46.152C60.1034 45.64 60.4634 45.048 60.7034 44.376C60.9434 43.704 61.0634 42.984 61.0634 42.216C61.0634 41.4 60.9354 40.656 60.6794 39.984C60.4394 39.296 60.0794 38.704 59.5994 38.208C59.1354 37.696 58.5754 37.304 57.9194 37.032C57.2634 36.76 56.5194 36.624 55.6874 36.624C54.8554 36.624 54.1114 36.76 53.4554 37.032C52.7994 37.304 52.2314 37.696 51.7514 38.208C51.2874 38.704 50.9354 39.296 50.6954 39.984C50.4554 40.656 50.3354 41.4 50.3354 42.216C50.3354 42.984 50.4554 43.704 50.6954 44.376C50.9354 45.048 51.2874 45.64 51.7514 46.152C52.2314 46.664 52.7994 47.064 53.4554 47.352C54.1114 47.64 54.8554 47.784 55.6874 47.784ZM69.9496 51V33.48H73.8856V51H69.9496ZM73.4056 51V47.544H80.7496V51H73.4056Z" fill="#C9AB51"/>
</svg>
