<svg width="100" height="100" viewBox="0 0 100 100" fill="none" xmlns="http://www.w3.org/2000/svg">
<path d="M31.4125 90.2543C69.15 90.2543 89.7937 58.9856 89.7937 31.9168C89.8021 31.0377 89.7896 30.1585 89.7563 29.2793C93.7741 26.3684 97.2426 22.7665 100 18.6418C96.2444 20.2935 92.2665 21.3844 88.1938 21.8793C92.485 19.315 95.6988 15.2794 97.2375 10.5231C93.208 12.9151 88.795 14.5919 84.1937 15.4793C81.1011 12.1857 77.0088 10.0038 72.5505 9.27157C68.0923 8.53931 63.517 9.29759 59.5334 11.4289C55.5497 13.5603 52.38 16.9458 50.5153 21.061C48.6506 25.1762 48.1949 29.7914 49.2188 34.1918C41.0605 33.7847 33.079 31.6663 25.7927 27.9741C18.5063 24.2819 12.078 19.0986 6.925 12.7606C4.30988 17.2802 3.51219 22.6255 4.69379 27.7117C5.8754 32.798 8.94778 37.2442 13.2875 40.1481C10.0338 40.0429 6.85121 39.1691 4 37.5981V37.8793C4.00796 42.613 5.64887 47.1989 8.64577 50.863C11.6427 54.5272 15.812 57.0451 20.45 57.9918C18.6892 58.4772 16.8702 58.719 15.0438 58.7106C13.7557 58.724 12.4698 58.6046 11.2062 58.3543C12.515 62.4312 15.0674 65.9959 18.5052 68.5483C21.9431 71.1006 26.0939 72.5124 30.375 72.5856C23.1006 78.2916 14.1203 81.3885 4.875 81.3793C3.24562 81.3916 1.61716 81.2976 0 81.0981C9.38389 87.0823 20.2829 90.2592 31.4125 90.2543Z" fill="#C9AB51"/>
</svg>
